<svg xmlns="http://www.w3.org/2000/svg" width="123" height="39" viewBox="0 0 123 39"><defs><clipPath id="xirma"><path fill="#fff" d="M0 0h123v39H0z"/></clipPath><clipPath id="xirmb"><path fill="#fff" d="M12 10.897c0-.494.383-.897.85-.897h3.078c.382 0 .723.269.822.657L20.224 23.9h9.471l3.148-7.622H22.351c-.468 0-.851-.404-.851-.897s.383-.896.85-.896h11.797c.284 0 .553.15.71.403a.95.95 0 0 1 .07.852l-3.885 9.416c-.142.329-.44.538-.78.538H19.586a.859.859 0 0 1-.823-.658L15.29 11.793h-2.438c-.468 0-.851-.403-.851-.896zm4.85 19.07c0-1.12.864-2.032 1.927-2.032 1.064 0 1.929.911 1.929 2.032S19.84 32 18.777 32c-1.063 0-1.928-.912-1.928-2.033zm12.065.135c-.07-1.106.724-2.093 1.787-2.167 1.063-.075 1.985.777 2.056 1.883.028.553-.128 1.076-.468 1.48-.34.418-.808.657-1.319.702h-.141c-1.007 0-1.844-.837-1.915-1.898z"/></clipPath></defs><g><g><g><path fill="#fff" d="M0 0h123v39H0z"/><path fill="none" stroke="#fff" stroke-linecap="round" stroke-linejoin="round" stroke-miterlimit="50" stroke-width="2" d="M0 0v0h123v39H0v0z" clip-path="url(&quot;#xirma&quot;)"/></g><g><path fill="#fff" d="M12 10.897c0-.494.383-.897.85-.897h3.078c.382 0 .723.269.822.657L20.224 23.9h9.471l3.148-7.622H22.351c-.468 0-.851-.404-.851-.897s.383-.896.85-.896h11.797c.284 0 .553.15.71.403a.95.95 0 0 1 .07.852l-3.885 9.416c-.142.329-.44.538-.78.538H19.586a.859.859 0 0 1-.823-.658L15.29 11.793h-2.438c-.468 0-.851-.403-.851-.896zm4.85 19.07c0-1.12.864-2.032 1.927-2.032 1.064 0 1.929.911 1.929 2.032S19.84 32 18.777 32c-1.063 0-1.928-.912-1.928-2.033zm12.065.135c-.07-1.106.724-2.093 1.787-2.167 1.063-.075 1.985.777 2.056 1.883.028.553-.128 1.076-.468 1.48-.34.418-.808.657-1.319.702h-.141c-1.007 0-1.844-.837-1.915-1.898z"/><path fill="none" stroke="#fff" stroke-linecap="round" stroke-linejoin="round" stroke-miterlimit="50" stroke-width="4" d="M12 10.897c0-.494.383-.897.85-.897h3.078c.382 0 .723.269.822.657L20.224 23.9h9.471l3.148-7.622H22.351c-.468 0-.851-.404-.851-.897s.383-.896.85-.896h11.797c.284 0 .553.15.71.403a.95.95 0 0 1 .07.852l-3.885 9.416c-.142.329-.44.538-.78.538H19.586a.859.859 0 0 1-.823-.658L15.29 11.793h-2.438c-.468 0-.851-.403-.851-.896zm4.85 19.07c0-1.12.864-2.032 1.927-2.032 1.064 0 1.929.911 1.929 2.032S19.84 32 18.777 32c-1.063 0-1.928-.912-1.928-2.033zm12.065.135c-.07-1.106.724-2.093 1.787-2.167 1.063-.075 1.985.777 2.056 1.883.028.553-.128 1.076-.468 1.48-.34.418-.808.657-1.319.702h-.141c-1.007 0-1.844-.837-1.915-1.898z" clip-path="url(&quot;#xirmb&quot;)"/></g><g><g><text fill="#fff" dominant-baseline="text-before-edge" font-family="'Lato','Lato-Bold'" font-size="13" font-style="none" font-weight="700" transform="translate(43 15)"><tspan style="font-kerning:normal">Add to Cart</tspan></text></g></g></g></g></svg>